<?xml version="1.0" encoding="UTF-8"?>
<svg xmlns="http://www.w3.org/2000/svg" xmlns:xlink="http://www.w3.org/1999/xlink" viewBox="0 0 48 48" width="48px" height="48px">
<g id="surface605158">
<path style=" stroke:none;fill-rule:nonzero;fill:rgb(20.392157%,59.607846%,85.882354%);fill-opacity:1;" d="M 9.699219 0 L 11.511719 0.933594 L 16.398438 6.039062 L 16.398438 9.660156 L 10.6875 3.84375 Z M 17.277344 6.914062 L 23.257812 12.679688 L 21.171875 14.4375 L 17.277344 10.429688 Z M 7.777344 4.828125 L 10.359375 6.148438 L 14.585938 9.824219 L 14.804688 13.449219 L 9.808594 9.714844 Z M 15.300781 10.265625 L 15.628906 13.945312 L 18.867188 16.6875 L 20.515625 14.820312 Z M 6.847656 10.320312 L 9.097656 10.59375 L 13.597656 13.996094 L 14.203125 17.457031 L 8.820312 13.449219 Z M 14.585938 14.65625 L 18.59375 17.457031 L 18.484375 20.367188 L 15.132812 18.171875 Z M 19.527344 17.292969 L 24.355469 12.789062 L 24.027344 16.523438 L 19.253906 21.574219 Z M 25.179688 11.96875 L 30.449219 6.972656 L 30.339844 10.8125 L 25.015625 15.371094 Z M 31.164062 5.984375 L 31.164062 9.660156 L 36.105469 5.433594 L 37.914062 0.382812 L 35.390625 1.644531 Z M 19.140625 22.726562 L 19.195312 25.964844 L 24.6875 20.585938 L 25.015625 16.90625 Z M 25.949219 16.085938 L 25.511719 19.378906 L 31.65625 14.273438 L 32.042969 10.59375 Z M 32.808594 9.824219 L 32.371094 13.671875 L 37.695312 10.046875 L 40.164062 4.828125 L 37.148438 6.476562 Z M 33.742188 13.996094 L 37.53125 11.308594 L 40.824219 10.484375 L 37.476562 14.933594 L 33.25 17.621094 Z M 26.222656 20.203125 L 32.644531 14.765625 L 32.261719 18.058594 L 25.675781 23.386719 Z M 7.230469 14.65625 L 9.644531 15.535156 L 13.269531 18.773438 L 14.144531 22.398438 L 9.316406 18.554688 Z M 14.035156 18.882812 L 14.914062 22.34375 L 18.152344 24.484375 L 18.152344 21.410156 Z M 18.976562 27.117188 L 25.015625 21.410156 L 24.523438 24.316406 L 18.59375 30.355469 Z M 14.585938 24.207031 L 17.988281 25.691406 L 17.933594 28.765625 L 15.40625 27.613281 Z M 13.320312 23.496094 L 14.367188 27.175781 L 8.984375 24.265625 L 6.847656 20.75 L 9.425781 20.75 Z M 14.640625 28.820312 L 17.878906 30.300781 L 17.769531 32.882812 L 15.847656 32.003906 Z M 7.835938 25.964844 L 8.933594 25.910156 L 13.433594 28.105469 L 14.75 31.621094 L 9.808594 28.984375 Z M 18.484375 31.730469 L 25.785156 24.539062 L 25.070312 27.558594 L 18.265625 33.761719 Z M 27.429688 23.054688 L 26.222656 26.789062 L 31.933594 23.21875 L 33.304688 18.882812 Z M 34.292969 18.335938 L 37.367188 16.085938 L 40.824219 14.984375 L 38.136719 19.378906 L 33.578125 22.179688 Z M 34.128906 23.550781 L 39.125 21.023438 L 41.152344 20.96875 L 37.640625 25.253906 L 32.921875 27.226562 Z M 32.976562 23.933594 L 31.878906 27.777344 L 26.113281 31.070312 L 27.101562 27.722656 Z M 18.265625 34.527344 L 25.839844 28.601562 L 24.738281 31.949219 L 18.042969 36.175781 Z M 17.714844 37.65625 L 25.398438 32.550781 L 23.972656 35.683594 L 17.386719 39.085938 Z M 26.972656 31.601562 L 32.828125 28.929688 L 30.851562 32.699219 L 25.398438 34.820312 Z M 33.929688 28.382812 L 32.390625 31.820312 L 36.195312 30.394531 L 39.746094 26.222656 L 37.695312 26.476562 Z M 33.011719 32.625 L 31.621094 35.847656 L 34.988281 34.53125 L 39.160156 30.980469 L 36.5625 31.199219 Z M 31.695312 33.175781 L 29.792969 36.578125 L 23.9375 38.992188 L 25.691406 35.734375 Z M 24.375 36.542969 L 22.546875 39.324219 L 16.03125 42.359375 L 16.871094 40.273438 Z M 8.636719 30.613281 L 11.238281 30.871094 L 14.164062 32.296875 L 15.300781 35.554688 L 11.019531 33.722656 Z M 15.921875 33.359375 L 17.386719 33.980469 L 17.386719 36.210938 L 16.691406 35.882812 Z M 17.203125 37.273438 L 16.324219 39.433594 L 13.214844 38.335938 L 11.199219 35.628906 L 13.175781 35.480469 Z M 12.921875 40.019531 L 14.566406 39.980469 L 16.066406 40.457031 L 15.480469 42.179688 L 13.691406 41.226562 Z M 10.175781 48 L 16.324219 42.949219 L 23.238281 39.726562 L 20.824219 43.097656 Z M 24.742188 39.144531 L 22.765625 41.742188 L 28.949219 39.800781 L 30.597656 36.875 Z M 31.839844 36.691406 L 30.304688 39.4375 L 34.183594 38.449219 L 36.378906 35.738281 L 34.292969 35.703125 Z M 29.207031 41.121094 L 31.621094 40.386719 L 34.21875 40.3125 L 31.695312 42.875 L 27.195312 43.609375 Z M 28.253906 41.011719 L 26.425781 43.425781 L 22.507812 43.097656 L 25.582031 41.300781 Z M 28.183594 44.046875 L 32.097656 43.71875 L 35.539062 46.757812 L 30.742188 45.730469 Z M 28.183594 44.046875 "/>
</g>
</svg>
